<svg xmlns="http://www.w3.org/2000/svg" viewBox="0 0 426.2 426.2"><defs><style>.cls-1{isolation:isolate;}.cls-2,.cls-26,.cls-8{fill:#fff;}.cls-10,.cls-2,.cls-4,.cls-5,.cls-6,.cls-7,.cls-9{stroke:#fff;}.cls-10,.cls-2,.cls-26,.cls-27,.cls-5,.cls-6,.cls-7,.cls-9{stroke-miterlimit:10;}.cls-27,.cls-3{fill:#4c8ac9;}.cls-10,.cls-4,.cls-5,.cls-6,.cls-7,.cls-9{fill:none;}.cls-10,.cls-4,.cls-6{stroke-linecap:round;}.cls-4{stroke-linejoin:round;}.cls-4,.cls-5{stroke-width:0.97px;}.cls-6,.cls-7{stroke-width:0.77px;}.cls-9{stroke-width:0.81px;}.cls-10{stroke-width:2.43px;}.cls-11{fill:#4255a2;}.cls-12{fill:#fab303;}.cls-13{fill:#fec900;}.cls-14{fill:#ffde00;}.cls-15{fill:#f59d0f;}.cls-16{fill:#f8b894;}.cls-17{fill:#dbf0fd;}.cls-18{fill:#383b4e;}.cls-19{fill:#2f3142;}.cls-20{fill:#21232f;}.cls-21{fill:#2b2d3c;}.cls-22{fill:#e4a386;}.cls-23{fill:#c1a7ab;mix-blend-mode:multiply;}.cls-24{fill:#c6c6c6;}.cls-25{fill:#dadada;}.cls-26{stroke:#364899;}.cls-27{stroke:#464294;}</style></defs><g class="cls-1"><g id="Capa_1" data-name="Capa 1"><rect class="cls-2" x="0.5" y="0.5" width="425.2" height="425.2"/><path class="cls-3" d="M386,183c0-8.95-6.82-16.21-15.22-16.21H350.29c-8.4,0-15.22-7.26-15.22-16.21s6.82-16.21,15.22-16.21h20.44c8.4,0,15.22-7.26,15.22-16.22S379.13,102,370.73,102H54.47c-8.41,0-15.22,7.26-15.22,16.21s6.81,16.22,15.22,16.22c-8.41,0-15.22,7.25-15.22,16.21s6.81,16.21,15.22,16.21H86.92c8.41,0,15.22,7.26,15.22,16.21s-6.81,16.22-15.22,16.22H54.47c-8.41,0-15.22,7.26-15.22,16.21s6.81,16.21,15.22,16.21h93.69c8.41,0,15.23,7.26,15.23,16.21s-6.82,16.22-15.23,16.22H54.47c-8.41,0-15.22,7.26-15.22,16.21s6.81,16.21,15.22,16.21c-8.41,0-15.22,7.26-15.22,16.22S46.06,329,54.47,329H83.19c-6.88,0-12.45,7.26-12.45,16.21s5.57,16.21,12.45,16.21H342c6.88,0,12.46-7.25,12.46-16.21S348.88,329,342,329h28.73c8.4,0,15.22-7.26,15.22-16.21s-6.82-16.22-15.22-16.22c8.4,0,15.22-7.26,15.22-16.21s-6.82-16.21-15.22-16.21h-45c-8.41,0-15.22-7.26-15.22-16.22s6.81-16.21,15.22-16.21h45c8.4,0,15.22-7.26,15.22-16.21s-6.82-16.21-15.22-16.21C379.13,199.26,386,192,386,183ZM324.52,312.75c0,8.95-6.82,16.21-15.22,16.21H256.52c-8.4,0-15.22-7.26-15.22-16.21s6.82-16.22,15.22-16.22H309.3C317.7,296.53,324.52,303.79,324.52,312.75Z" transform="translate(0.5 0.5)"/><path class="cls-4" d="M247,137.71c-15.91,0-28.8,11.67-28.8,26.06,0,18.34,19.68,20.19,19.68,29.13v2.47H258v-3.1c0-9,17.79-10.16,17.79-28.5C275.83,149.38,262.93,137.71,247,137.71Z" transform="translate(0.5 0.5)"/><path class="cls-5" d="M238.91,209c.78,3,4.54,5.27,9.06,5.27S256.26,212,257,209Z" transform="translate(0.5 0.5)"/><rect class="cls-4" x="238.41" y="200.36" width="20.12" height="4.43"/><rect class="cls-5" x="237.1" y="204.91" width="22.75" height="4.35"/><rect class="cls-4" x="237.1" y="196" width="22.75" height="4.35"/><line class="cls-4" x1="247.53" y1="133.27" x2="247.53" y2="125.15"/><line class="cls-4" x1="282.16" y1="163.74" x2="290.47" y2="163.74"/><line class="cls-4" x1="206.92" y1="163.74" x2="215.23" y2="163.74"/><line class="cls-4" x1="267.07" y1="140.39" x2="273.76" y2="133.27"/><line class="cls-4" x1="223.1" y1="181.75" x2="215.23" y2="187.69"/><line class="cls-4" x1="223.1" y1="143.16" x2="216.98" y2="138.21"/><line class="cls-4" x1="272.1" y1="181.75" x2="277.78" y2="187.69"/><line class="cls-4" x1="244.54" y1="196" x2="239.51" y2="163.74"/><line class="cls-4" x1="252.85" y1="196" x2="257.88" y2="163.74"/><line class="cls-4" x1="239.97" y1="166.74" x2="257.17" y2="166.74"/><rect class="cls-6" x="216.96" y="237.15" width="69.59" height="51.68"/><line class="cls-6" x1="216.96" y1="245.86" x2="286.54" y2="245.86"/><path class="cls-6" d="M265.82,240.93a2.16,2.16,0,1,1-2.16-2.08A2.12,2.12,0,0,1,265.82,240.93Z" transform="translate(0.5 0.5)"/><path class="cls-6" d="M282.48,240.93a2.16,2.16,0,1,1-2.16-2.08A2.12,2.12,0,0,1,282.48,240.93Z" transform="translate(0.5 0.5)"/><path class="cls-6" d="M274.47,240.93a2.17,2.17,0,1,1-2.17-2.08A2.12,2.12,0,0,1,274.47,240.93Z" transform="translate(0.5 0.5)"/><path class="cls-6" d="M257.69,240.9a2.39,2.39,0,0,1-2.6,2.11H222.28a2.39,2.39,0,0,1-2.6-2.11h0a2.4,2.4,0,0,1,2.6-2.12h32.81a2.4,2.4,0,0,1,2.6,2.12Z" transform="translate(0.5 0.5)"/><polyline class="cls-6" points="237.67 254.77 228.02 254.77 228.02 280.51 237.67 280.51"/><polyline class="cls-6" points="268.04 280.51 276.29 280.51 276.29 254.77 268.04 254.77"/><line class="cls-7" x1="232.85" y1="259.03" x2="270.64" y2="259.03"/><line class="cls-7" x1="232.85" y1="264.54" x2="251.77" y2="264.54"/><line class="cls-7" x1="258.19" y1="264.54" x2="270.64" y2="264.54"/><line class="cls-7" x1="232.85" y1="269.54" x2="251.77" y2="269.54"/><line class="cls-7" x1="258.19" y1="269.54" x2="270.64" y2="269.54"/><line class="cls-7" x1="232.85" y1="274.54" x2="251.77" y2="274.54"/><line class="cls-7" x1="258.19" y1="274.54" x2="270.64" y2="274.54"/><path class="cls-8" d="M264.9,257H241.46a9.24,9.24,0,0,0-2.38,3.13h27.85A11.62,11.62,0,0,0,264.9,257Z" transform="translate(0.5 0.5)"/><path class="cls-8" d="M237.69,262.48a14,14,0,0,0-.37,2.81,1.07,1.07,0,0,1-.07.32h16.13v-3.13Z" transform="translate(0.5 0.5)"/><path class="cls-8" d="M267.81,262.48H256.12v3.13h12.31A21.13,21.13,0,0,0,267.81,262.48Z" transform="translate(0.5 0.5)"/><path class="cls-8" d="M237.19,267.48a.92.92,0,0,1-.24,1.1v.07a1,1,0,0,1,.36.68c0,.23.09.45.12.68a.64.64,0,0,1-.09.36.67.67,0,0,1,0,.24h16v-3.13Z" transform="translate(0.5 0.5)"/><path class="cls-8" d="M268.61,267.48H256.12v3.13H268.7C268.7,269.56,268.68,268.51,268.61,267.48Z" transform="translate(0.5 0.5)"/><path class="cls-8" d="M237.72,272.48a34,34,0,0,0,1.72,3.13h13.94v-3.13Z" transform="translate(0.5 0.5)"/><path class="cls-8" d="M268.13,272.48h-12v3.13h10.24A6.44,6.44,0,0,0,268.13,272.48Z" transform="translate(0.5 0.5)"/><path class="cls-9" d="M266.55,259.27a15,15,0,0,1-5.4,21,16.28,16.28,0,0,1-21.86-5.2,15,15,0,0,1,5.4-21A16.27,16.27,0,0,1,266.55,259.27Z" transform="translate(0.5 0.5)"/><line class="cls-9" x1="261.65" y1="280.8" x2="264.21" y2="284.88"/><line class="cls-10" x1="265.09" y1="286.28" x2="276.13" y2="303.89"/><path class="cls-11" d="M400.09,379.05a17.67,17.67,0,0,1-17.67,17.66H42.77a17.66,17.66,0,0,1-17.66-17.66h0a17.67,17.67,0,0,1,17.66-17.67H382.42a17.67,17.67,0,0,1,17.67,17.67Z" transform="translate(0.5 0.5)"/><path class="cls-12" d="M164.81,285a45.25,45.25,0,0,1,20.1,60.75c-2,3.93-7.5,14.84-7.5,14.84l-80.9-40.48,7.55-15A45.25,45.25,0,0,1,164.81,285Z" transform="translate(0.5 0.5)"/><path class="cls-13" d="M158.21,298.16a45.25,45.25,0,1,1-60.75,20.11A45.25,45.25,0,0,1,158.21,298.16Z" transform="translate(0.5 0.5)"/><path class="cls-14" d="M153.56,307.41a34.9,34.9,0,1,1-46.86,15.51A34.9,34.9,0,0,1,153.56,307.41Z" transform="translate(0.5 0.5)"/><path class="cls-12" d="M162.91,354.28,156.42,351c-1.94,3.69-5,7-7.78,8.41l-3.53-3.71a19.18,19.18,0,0,0,7.42-7.87c2.29-4.56,1.21-9-2.46-10.81s-7-.37-11.3,3.42c-5.87,5.26-10.86,7.83-16.46,5-5.33-2.68-7.48-8.51-5.47-14.91l-6.49-3.26,2-4,6.24,3.14a19.13,19.13,0,0,1,6.45-7.23l3.44,3.74a17.41,17.41,0,0,0-6.26,7c-2.49,5-.47,8.3,2.1,9.6,3.35,1.68,6.21.14,11.34-4.29,6-5.27,11.05-6.93,16.77-4,5.08,2.55,8.07,8.48,5.83,15.65l6.69,3.36Z" transform="translate(0.5 0.5)"/><path class="cls-15" d="M161.62,285.45a7.83,7.83,0,0,1-.21,1.59,13.79,13.79,0,0,1-1.15,3.14,13.45,13.45,0,0,1-1.84,2.8,7.61,7.61,0,0,1-1.14,1.11,7.71,7.71,0,0,1,.21-1.58,14.4,14.4,0,0,1,3-5.94A8.06,8.06,0,0,1,161.62,285.45Z" transform="translate(0.5 0.5)"/><path class="cls-15" d="M154,282.47a8.44,8.44,0,0,1-.27,1.69,16.77,16.77,0,0,1-3.22,6.42,8.1,8.1,0,0,1-1.2,1.22,8.44,8.44,0,0,1,.27-1.69,16.84,16.84,0,0,1,3.23-6.41A8.84,8.84,0,0,1,154,282.47Z" transform="translate(0.5 0.5)"/><path class="cls-15" d="M144.39,281.39a7.71,7.71,0,0,1-.21,1.58,14.33,14.33,0,0,1-3,5.91,7.61,7.61,0,0,1-1.14,1.11,7.78,7.78,0,0,1,.21-1.58,14.33,14.33,0,0,1,3-5.91A7.61,7.61,0,0,1,144.39,281.39Z" transform="translate(0.5 0.5)"/><path class="cls-15" d="M135,282a7.65,7.65,0,0,1-.21,1.57,13.33,13.33,0,0,1-1.14,3.13,13.48,13.48,0,0,1-1.83,2.79,7.81,7.81,0,0,1-1.14,1.1,7.65,7.65,0,0,1,.21-1.57,14.33,14.33,0,0,1,3-5.91A7.61,7.61,0,0,1,135,282Z" transform="translate(0.5 0.5)"/><path class="cls-15" d="M125,285.53a5,5,0,0,1-.07,1.28,8.44,8.44,0,0,1-.81,2.5,8.61,8.61,0,0,1-1.51,2.14,4.86,4.86,0,0,1-1,.82,5.31,5.31,0,0,1,.06-1.29,8.83,8.83,0,0,1,.82-2.49,8.38,8.38,0,0,1,1.52-2.14A5,5,0,0,1,125,285.53Z" transform="translate(0.5 0.5)"/><path class="cls-15" d="M176.32,294.85a8.3,8.3,0,0,1-.27,1.68,15.59,15.59,0,0,1-1.25,3.36,15.06,15.06,0,0,1-2,3,8,8,0,0,1-1.19,1.21,8.78,8.78,0,0,1,.26-1.68,15.66,15.66,0,0,1,1.26-3.36,15.26,15.26,0,0,1,1.95-3A7.8,7.8,0,0,1,176.32,294.85Z" transform="translate(0.5 0.5)"/><path class="cls-15" d="M169.47,289.87a8.3,8.3,0,0,1-.27,1.68,15.59,15.59,0,0,1-1.25,3.36,15.06,15.06,0,0,1-1.95,3,8,8,0,0,1-1.19,1.21,8.78,8.78,0,0,1,.26-1.68,15.6,15.6,0,0,1,1.26-3.35,15.06,15.06,0,0,1,1.95-3A9.07,9.07,0,0,1,169.47,289.87Z" transform="translate(0.5 0.5)"/><path class="cls-15" d="M181.32,301.2a7.79,7.79,0,0,1-.25,1.64,15.75,15.75,0,0,1-3.12,6.22,8,8,0,0,1-1.17,1.17,8.13,8.13,0,0,1,.24-1.64,15.82,15.82,0,0,1,3.13-6.21A7.9,7.9,0,0,1,181.32,301.2Z" transform="translate(0.5 0.5)"/><path class="cls-15" d="M185.46,335.5a5.55,5.55,0,0,1,.09-1.34,9.08,9.08,0,0,1,.87-2.59,9.19,9.19,0,0,1,1.56-2.25,5.25,5.25,0,0,1,1-.86,5.47,5.47,0,0,1-.09,1.33,9.46,9.46,0,0,1-.87,2.6,9.69,9.69,0,0,1-1.56,2.24A6,6,0,0,1,185.46,335.5Z" transform="translate(0.5 0.5)"/><path class="cls-15" d="M184.25,325.12a6.24,6.24,0,0,1,.14-1.43,11,11,0,0,1,1-2.81,10.57,10.57,0,0,1,1.67-2.46,6.16,6.16,0,0,1,1.06-1,6.58,6.58,0,0,1-.13,1.43,11.47,11.47,0,0,1-2.65,5.26A6.34,6.34,0,0,1,184.25,325.12Z" transform="translate(0.5 0.5)"/><path class="cls-15" d="M181.4,317.06a6.72,6.72,0,0,1,.17-1.5,13,13,0,0,1,2.8-5.58,7,7,0,0,1,1.11-1,6.72,6.72,0,0,1-.17,1.5,12.08,12.08,0,0,1-1.06,3A11.81,11.81,0,0,1,182.5,316,7.21,7.21,0,0,1,181.4,317.06Z" transform="translate(0.5 0.5)"/><path class="cls-16" d="M170.63,227.77l1.36,2.47c.84,1.56,2,3.79,3.38,6.51s2.88,5.94,4.37,9.51c.74,1.78,1.47,3.66,2.12,5.66a30.32,30.32,0,0,1,1.5,6.65,12.71,12.71,0,0,1,0,2.14,8.21,8.21,0,0,1-.21,1.29l-.06.23v0l0,.09-.06.17-.11.36c0,.13-.06.21-.12.38l-.2.51c-.14.33-.28.71-.42,1a17,17,0,0,1-.89,1.63,24,24,0,0,1-4.34,5.14,47.9,47.9,0,0,1-9,6.32c-2.75,1.53-5.1,2.61-6.77,3.34-.84.36-1.51.63-2,.81l-.74.28-2.33-6.11.58-.25c.4-.17,1-.43,1.74-.78a67.06,67.06,0,0,0,6.05-3.22,41.14,41.14,0,0,0,7.49-5.59,17.44,17.44,0,0,0,2.95-3.7c.19-.32.33-.64.49-1s.09-.26.15-.39l.07-.17c0-.06.06-.22.1-.33l.1-.35.05-.18,0-.09v-.07c-.09.34,0,.09-.05.17s0-.09,0-.18a5.66,5.66,0,0,0,0-.84,23.36,23.36,0,0,0-1.3-4.85c-.61-1.7-1.32-3.4-2.06-5-1.48-3.27-3-6.3-4.41-8.87s-2.59-4.69-3.45-6.17l-1.34-2.28Z" transform="translate(0.5 0.5)"/><path class="cls-17" d="M182.08,247.56l-9.59,6.12L160.85,234.1c-.74-9.68-2.47-14.45-4.67-21.87C168.47,217.32,182.08,247.56,182.08,247.56Z" transform="translate(0.5 0.5)"/><path class="cls-18" d="M171,308.28s-10.08-9-28.31-9-27.16,6.64-27.16,6.64l-7.16-19.1,10.36-3.47v-4h44.88v3.1l11.1,6.2Z" transform="translate(0.5 0.5)"/><path class="cls-19" d="M150.14,292.7c-4.29.15-17.17.91-20.72,1.11-6.65.37-11.12-6.37-15.76-5.18l1.9,17.26s8.92-6.64,27.16-6.64,28.31,9,28.31,9l-4.42-20.5C160.57,289.92,157.43,292.45,150.14,292.7Z" transform="translate(0.5 0.5)"/><path class="cls-20" d="M170,362.79s3.6,9.47,11.45,12.41c4.37,1.65,3.85,5.94,2,7-1.2.4-12.28,1.78-14.73-.38s-9.21-7.75-9.65-8.49c-2-3.38,1-7.31.43-9.16C158.67,361.43,170,362.79,170,362.79Z" transform="translate(0.5 0.5)"/><path class="cls-18" d="M179.47,300.89c.61,33.23-6.1,65.49-6.1,65.49l-14.73-1.93c-.79-4.67,3.87-39.1,1.16-65.18C158.64,288.09,179,276.76,179.47,300.89Z" transform="translate(0.5 0.5)"/><path class="cls-20" d="M113.14,362.79s-3.6,9.47-11.45,12.41c-4.37,1.65-3.85,5.94-2,7,1.2.4,12.28,1.78,14.74-.38s9.21-7.75,9.65-8.49c2-3.38-1-7.31-.44-9.16C124.45,361.43,113.14,362.79,113.14,362.79Z" transform="translate(0.5 0.5)"/><path class="cls-18" d="M101.52,300.89c-.6,33.23,8.23,65.49,8.23,65.49l14.73-1.93c.79-4.67-6-39.1-3.28-65.18C122.36,288.09,102,276.76,101.52,300.89Z" transform="translate(0.5 0.5)"/><path class="cls-8" d="M120,254.56c-.73,9.14-1,19.23-1.23,24.77h44.88a278.61,278.61,0,0,0-.47-31.62c-.93-11.65-1.77-30.81-4.5-33.73s-8.9-3.5-10.12-3.92c-2.64-.9-9.64-.78-12.42-.59-3.51.24-10.51,1.77-11.6,4.16S120.7,245.58,120,254.56Z" transform="translate(0.5 0.5)"/><path class="cls-16" d="M146.23,203.66c0-3.76-9.74-5.06-9.29-1.7a19.62,19.62,0,0,1-.53,6.45c-.16.66-2.55,1.33-2.55,1.33s2.45,5,7.74,5a7.43,7.43,0,0,0,7-4.72l-2.43-1.5S146.23,205.55,146.23,203.66Z" transform="translate(0.5 0.5)"/><path class="cls-21" d="M158.62,176.37c0,17.84-5.69,21.13-18.31,24.57-8.44,2.3-23.4-2.87-24.41-28.46-.3-7.56.81-18.24,6.62-17.47,3.72-10.3,8.77-8.39,16.3-8.39C154.39,146.62,171.55,156,158.62,176.37Z" transform="translate(0.5 0.5)"/><path class="cls-22" d="M160.85,180c0,18.32-6.56,25.8-14.62,25.8-9.21,0-21.65-10.92-21.65-25.8,0-18.33,8.12-28.42,18.14-28.42S160.85,161.66,160.85,180Z" transform="translate(0.5 0.5)"/><path class="cls-16" d="M160,179c0,17.68-3.71,25.14-13.23,25.14s-21.26-6.09-22.15-25.34c-.82-17.66,8.62-27.22,18.14-27.22S160,161.31,160,179Z" transform="translate(0.5 0.5)"/><path class="cls-21" d="M144.05,150.75c-8.06,0-17.66,4.48-18.58,12.37a25.56,25.56,0,0,0,11.43,6.28c2.76.73,6.76-3.83,9.83-3.83,4.23,0,7.48,4.65,10.7,3.44,2.9-1.09,4.92-3,5.19-6.12C157.41,157.19,151.92,150.75,144.05,150.75Z" transform="translate(0.5 0.5)"/><path class="cls-16" d="M120,180.2c-4.22,1.69-.39,9.77,3.93,9.06,1.85-.31,4.56-.4,4.56-3.32s-3.42-3-3.42-3S123.87,178.66,120,180.2Z" transform="translate(0.5 0.5)"/><path class="cls-23" d="M122.88,181.47s-2.15-.83-3,.88c-1.1,2.15,2.21,5.52,2.21,5.52s-2.19-3.3-1.16-5.35A1.88,1.88,0,0,1,122.88,181.47Z" transform="translate(0.5 0.5)"/><path class="cls-21" d="M125.67,177.13c-2.79-11,6.2-9.57,6.2-9.57s-5.3-10-7.35-5.88c-.78,1.54-5,14.38-1,18.82,0,2.71,2.37,4.77,3.21,4.51S126.52,180.46,125.67,177.13Z" transform="translate(0.5 0.5)"/><rect class="cls-24" x="108.5" y="283.96" width="65.32" height="5.17"/><rect class="cls-25" x="112.84" y="255.4" width="57.97" height="33.73"/><path class="cls-16" d="M116.42,275.23,122,277.6l5,.68.66-7.94-3.11-.87,1.34-2.23s1.79-2.66.78-3.21-4,2.46-5.48,3.48a20.21,20.21,0,0,1-4.54,1.86Z" transform="translate(0.5 0.5)"/><path class="cls-16" d="M127.06,278.28s5.67.86,6.47.76,1.33-1.07.6-1.23L126.2,276Z" transform="translate(0.5 0.5)"/><path class="cls-16" d="M127.09,276.49s8.42,1.39,9.22,1.28,1.33-1.07.6-1.23l-9.81-2.2Z" transform="translate(0.5 0.5)"/><path class="cls-16" d="M126.79,274.18s8.43,1.38,9.23,1.27,1.32-1.06.59-1.23l-9.8-2.2Z" transform="translate(0.5 0.5)"/><path class="cls-16" d="M125.82,272s8.42,1.39,9.22,1.28,1.33-1.07.6-1.23l-9.81-2.2Z" transform="translate(0.5 0.5)"/><path class="cls-16" d="M119.52,232.06l-1.15,2c-.74,1.26-1.78,3.08-3,5.29s-2.57,4.79-3.91,7.59a73,73,0,0,0-3.65,8.77,17.88,17.88,0,0,0-.91,4,5,5,0,0,0,0,.56s0,0,0,0h0s-.07-.24,0-.12v.08l0,.15.16.6c.1.35.15.47.24.76s.21.54.35.79a11,11,0,0,0,4.57,4.65,19.16,19.16,0,0,0,4.87,1.89,15.63,15.63,0,0,0,1.86.35l-.47,6.53a22.22,22.22,0,0,1-2.78-.38A26.06,26.06,0,0,1,109,273.3a20,20,0,0,1-4.14-2.81,16.64,16.64,0,0,1-3.64-4.56c-.26-.44-.46-.92-.68-1.39s-.44-1.12-.58-1.55l-.18-.59,0-.15,0-.08-.06-.26c0-.18-.08-.38-.11-.56a10.39,10.39,0,0,1-.12-1.94,24,24,0,0,1,1.08-6,81.32,81.32,0,0,1,3.74-9.87c1.34-3,2.67-5.75,3.85-8.08s2.2-4.25,2.93-5.59l1.17-2.12Z" transform="translate(0.5 0.5)"/><path class="cls-17" d="M100.74,247.56l10.14,6.12,12.23-19.75c.75-9.67,1.53-14.78,3.72-22.19C113.66,218.87,100.74,247.56,100.74,247.56Z" transform="translate(0.5 0.5)"/><rect class="cls-26" x="165.38" y="62.6" width="129.5" height="52.5"/><rect class="cls-26" x="171.88" y="69.6" width="96.32" height="11.14"/><rect class="cls-26" x="171.88" y="84.92" width="117.67" height="5.57"/><rect class="cls-26" x="171.88" y="93.67" width="117.67" height="5.57"/><rect class="cls-26" x="171.88" y="103.03" width="83.3" height="5.57"/><polygon class="cls-26" points="187.88 115.1 186.55 129.6 211.55 113.26 187.88 115.1"/><rect class="cls-27" x="94.13" y="33.51" width="129.5" height="52.5"/><rect class="cls-27" x="140.3" y="40.51" width="63.85" height="11.14"/><rect class="cls-27" x="99.96" y="40.51" width="34.17" height="39"/><rect class="cls-27" x="140.3" y="55.83" width="78" height="5.57"/><rect class="cls-27" x="140.3" y="64.58" width="78" height="5.57"/><rect class="cls-27" x="140.3" y="73.94" width="55.22" height="5.57"/><polygon class="cls-27" points="116.63 86.01 115.3 100.51 140.3 84.17 116.63 86.01"/></g></g></svg>