<?xml version="1.0" encoding="utf-8"?>
<!-- Generator: Adobe Illustrator 26.0.1, SVG Export Plug-In . SVG Version: 6.00 Build 0)  -->
<svg version="1.1" xmlns="http://www.w3.org/2000/svg" xmlns:xlink="http://www.w3.org/1999/xlink" x="0px" y="0px"
	 viewBox="0 0 500 500" style="enable-background:new 0 0 500 500;" xml:space="preserve">
<style type="text/css">
	.st0{fill:#FFE7DB;}
	.st1{fill:#E72D3B;}
	.st2{fill:#FFFFFF;}
	.st3{fill:#0F2C56;}
	.st4{fill:#CFE2FF;}
	.st5{fill:#B20B1F;}
	.st6{fill:#E3A1A6;}
	.st7{fill:#C6D9F5;}
	.st8{fill:#D8E8FF;}
	.st9{fill:#8A0B1A;}
	.st10{opacity:0.5;fill:#FFFFFF;}
	.st11{opacity:0.5;}
	.st12{fill:#5D79A1;}
</style>
<g id="BACKGROUND">
</g>
<g id="OBJECTS">
	<path class="st0" d="M70.39,150.97c57.24-70.16,135.4-23.55,175.68-22.4c40.28,1.15,89.07-68.51,168.68-20.2
		c88.86,53.92,52.44,294.98-154.28,307.93C64.41,428.58,18.05,215.12,70.39,150.97z"/>
	<g>
		<g>
			
				<rect x="59.04" y="331.23" transform="matrix(0.922 -0.3873 0.3873 0.922 -144.0546 71.7666)" class="st1" width="93.99" height="124.16"/>
			
				<rect x="69.04" y="338.7" transform="matrix(0.922 -0.3873 0.3873 0.922 -143.38 71.3085)" class="st2" width="72.4" height="105.42"/>
			<path class="st3" d="M92.44,326.52c-3.16-2.53-8.97-2.86-14.65-0.47c-5.68,2.39-9.52,6.77-9.92,10.8l-9.6,4.03l6.33,15.08
				l43.77-18.39l-6.33-15.08L92.44,326.52z"/>
			
				<rect x="66.09" y="356.07" transform="matrix(0.922 -0.3873 0.3873 0.922 -137.7829 60.9613)" class="st4" width="32.55" height="32.55"/>
			
				<rect x="74.01" y="386.79" transform="matrix(0.922 -0.3873 0.3873 0.922 -142.3247 70.5919)" class="st4" width="59.96" height="3.28"/>
			
				<rect x="77.33" y="394.69" transform="matrix(0.922 -0.3873 0.3873 0.922 -145.1275 72.4953)" class="st4" width="59.96" height="3.28"/>
			
				<rect x="80.65" y="402.6" transform="matrix(0.922 -0.3873 0.3873 0.922 -147.9298 74.3983)" class="st4" width="59.96" height="3.28"/>
			
				<rect x="83.97" y="410.5" transform="matrix(0.922 -0.3873 0.3873 0.922 -150.7315 76.3009)" class="st4" width="59.96" height="3.28"/>
			
				<rect x="87.29" y="418.41" transform="matrix(0.922 -0.3873 0.3873 0.922 -153.5343 78.2043)" class="st4" width="59.96" height="3.28"/>
			
				<rect x="90.61" y="426.31" transform="matrix(0.922 -0.3873 0.3873 0.922 -156.336 80.1069)" class="st4" width="59.96" height="3.28"/>
			
				<rect x="94.73" y="344.77" transform="matrix(0.922 -0.3873 0.3873 0.922 -126.0189 68.2701)" class="st4" width="23.31" height="4.08"/>
			
				<rect x="97.76" y="352" transform="matrix(0.922 -0.3873 0.3873 0.922 -128.579 70.0087)" class="st4" width="23.31" height="4.08"/>
			
				<rect x="100.79" y="359.22" transform="matrix(0.922 -0.3873 0.3873 0.922 -131.1395 71.7476)" class="st4" width="23.31" height="4.08"/>
		</g>
		<g>
			
				<rect x="365.86" y="120.37" transform="matrix(0.3393 -0.9407 0.9407 0.3393 126.6442 475.8058)" class="st1" width="72.33" height="54.76"/>
			
				<rect x="381.34" y="115.91" transform="matrix(0.9407 0.3393 -0.3393 0.9407 73.6089 -127.8321)" class="st2" width="42.18" height="61.42"/>
			<path class="st3" d="M422.54,113.75c-0.35-2.33-2.72-4.77-6.09-5.98c-3.38-1.22-6.75-0.85-8.51,0.72l-5.71-2.06l-3.23,8.96
				l26.02,9.38l3.23-8.96L422.54,113.75z"/>
			
				<rect x="390.66" y="119.94" transform="matrix(0.9407 0.3393 -0.3393 0.9407 67.639 -128.076)" class="st4" width="18.96" height="18.96"/>
			
				<rect x="385.6" y="143.9" transform="matrix(0.9407 0.3393 -0.3393 0.9407 73.0468 -128.1538)" class="st4" width="34.93" height="1.91"/>
			
				<rect x="383.91" y="148.59" transform="matrix(0.9407 0.3393 -0.3393 0.9407 74.5401 -127.2999)" class="st4" width="34.93" height="1.91"/>
			
				<rect x="382.21" y="153.29" transform="matrix(0.9407 0.3393 -0.3393 0.9407 76.0337 -126.4464)" class="st4" width="34.93" height="1.91"/>
			
				<rect x="380.52" y="157.99" transform="matrix(0.9407 0.3393 -0.3393 0.9407 77.5265 -125.5919)" class="st4" width="34.93" height="1.91"/>
			
				<rect x="378.82" y="162.69" transform="matrix(0.9407 0.3393 -0.3393 0.9407 79.0211 -124.7396)" class="st4" width="34.93" height="1.91"/>
			
				<rect x="377.13" y="167.39" transform="matrix(0.9407 0.3393 -0.3393 0.9407 80.5147 -123.886)" class="st4" width="34.93" height="1.91"/>
			
				<rect x="413.72" y="126.77" transform="matrix(0.9407 0.3393 -0.3393 0.9407 68.3487 -135.0745)" class="st4" width="13.58" height="2.37"/>
			
				<rect x="412.17" y="131.06" transform="matrix(0.9407 0.3393 -0.3393 0.9407 69.7126 -134.2939)" class="st4" width="13.58" height="2.37"/>
			
				<rect x="410.62" y="135.35" transform="matrix(0.9407 0.3393 -0.3393 0.9407 71.0758 -133.5125)" class="st4" width="13.58" height="2.37"/>
		</g>
	</g>
	<g>
		<g>
			<path class="st5" d="M356.06,422.47c-8.05,11.71-21.5,18.75-34.22,24.24c-7.44,3.2-15.03,6-22.71,8.55
				c-7.26,2.4-14.9,5.55-22.6,5.91c-15.62,0.73-30.07-11.04-32.65-26.41c-1.35-8.02-0.52-16.66-0.52-24.74v-22.85
				c0-1.27,0.3-2.35,0.8-3.24c0.8-1.4,2.12-2.33,3.6-2.77c1.73-0.51,3.67-0.38,5.28,0.39c1.94,0.93,3.4,2.81,3.4,5.62v36.12
				c0,9.29,1.18,18.2,10.58,22.88c2.23,1.11,4.42,1.64,6.6,1.78c0.01,0,0.01,0,0.02,0c4.03,0.24,8.02-0.87,12.17-2.15
				c7.52-2.33,15.02-4.77,22.39-7.57c4.62-1.75,9.46-3.64,14.16-5.87c0,0,0.03-0.01,0.08-0.04c7.72-3.64,15.09-8.16,20.61-14.33
				c8.68-9.71,5.32-23.56-3.27-32.24c-12.23-12.35-29.33-15.71-46.06-16.36c-2.04-0.07-4.07-0.15-6.12-0.22
				c-1.11-0.05-2.23-0.08-3.35-0.12c5.25-1.87,10.3-4.17,15.08-6.86c2.67-1.49,5.26-3.1,7.76-4.82c1,0.12,1.99,0.26,2.99,0.41
				c1,0.15,2,0.32,3,0.51c15.71,2.95,31.14,10.76,40.71,23.85C362.13,393.55,364.36,410.42,356.06,422.47z"/>
			<path class="st6" d="M273.61,447.93c-27.59,0.25-27.91-37.16-27.91-59.5l-1.54-4.52l-1.06-3.12l4.65,0.36l5.28,0.39
				c1.94,0.93,3.4,2.81,3.4,5.62v36.12c0,9.29,1.18,18.2,10.58,22.88C269.25,447.27,271.43,447.8,273.61,447.93z"/>
			<path class="st6" d="M352.62,397.57c-4.72-19.41-23.65-29.79-47.79-34.44c2.86-1.43,5.62-3.04,8.26-4.85c-1-0.2-2-0.36-3-0.51
				c-1-0.15-1.99-0.29-2.99-0.41c-2.5,1.72-5.09,3.33-7.76,4.82c0,0-0.01,0-0.01,0c-1.17,0.66-2.36,1.3-3.57,1.91
				c-0.11,0.06-0.23,0.11-0.34,0.17c-0.99,0.5-1.98,0.97-2.99,1.44c-0.36,0.17-0.72,0.33-1.08,0.49c-0.82,0.36-1.64,0.72-2.46,1.06
				c-0.37,0.15-0.74,0.31-1.11,0.46c-1.16,0.47-2.34,0.92-3.52,1.34c1.11,0.04,2.23,0.07,3.35,0.12c2.05,0.07,4.08,0.15,6.12,0.22
				c16.73,0.65,33.83,4.01,46.06,16.36c8.59,8.67,11.95,22.53,3.27,32.24c-5.52,6.18-12.89,10.69-20.61,14.33
				C324.39,431.58,357.76,418.73,352.62,397.57z"/>
		</g>
		<g>
			<path class="st7" d="M270.86,97.13h-41.37c-9.37,0-16.98,7.6-16.98,16.98v12.65h75.33V114.1
				C287.84,104.72,280.23,97.13,270.86,97.13z M263.44,117.64h-26.54c-2.35,0-4.27-1.91-4.27-4.27s1.92-4.27,4.27-4.27h6.85
				c0.43-3.17,3.14-5.62,6.42-5.62c3.28,0,5.99,2.45,6.42,5.62h6.85c2.35,0,4.27,1.91,4.27,4.27c0,0.74-0.19,1.43-0.51,2.04
				C266.47,116.74,265.06,117.64,263.44,117.64z"/>
			<path class="st8" d="M287.84,115.87v10.89h-75.33v-4.55c8.24-1.93,16.58-3.46,24.98-4.57h25.96c1.62,0,3.03-0.9,3.76-2.23
				C274.09,115.28,280.97,115.44,287.84,115.87z"/>
			<g>
				<path class="st7" d="M260.97,380.79v1.65c0,0.65-0.07,1.3-0.22,1.91c-0.86,3.58-4.07,6.22-7.9,6.22h-5.89
					c-4.23,0-7.71-3.23-8.1-7.37c-0.02-0.25-0.03-0.5-0.03-0.76v-1.65H260.97z"/>
				<path class="st8" d="M260.97,380.79v1.65c0,0.65-0.07,1.3-0.22,1.91c-7.32-0.01-14.62-0.39-21.89-1.15
					c-0.02-0.25-0.03-0.5-0.03-0.76v-1.65H260.97z"/>
				<path class="st7" d="M269.88,367.29v7.14c0,1.36-0.34,2.66-0.94,3.79c-1.35,2.58-4.07,4.34-7.19,4.34h-23.7
					c-4.49,0-8.13-3.63-8.13-8.13v-7.14H269.88z"/>
				<path class="st8" d="M269.88,368.34v6.08c0,1.36-0.34,2.66-0.94,3.79c-13.16,0.49-26.38-1.12-39.02-4.77v-6.05
					c0.08-0.05,0.19-0.08,0.28-0.11c0.68-0.22,1.46-0.21,2.19-0.2c1.96,0.07,3.92,0.13,5.89,0.2
					C248.81,367.64,259.34,367.99,269.88,368.34z"/>
			</g>
			<path class="st7" d="M351.38,154.2l-4.51,132.24c-0.02,0.68-0.06,1.36-0.1,2.05c-1.73,28.29-19.49,58.18-48.57,74.32
				c-0.49,0.27-0.97,0.54-1.47,0.78c-10.43,5.44-21.99,9.1-34.23,10.59c-0.39,0.06-0.79,0.09-1.19,0.13
				c-0.03,0.01-0.05,0.01-0.07,0.01c-3.63,0.4-7.33,0.61-11.06,0.61c-6.85,0-13.54-0.68-20.01-1.98c-0.07-0.02-0.15-0.03-0.22-0.05
				c-17.89-3.63-34.06-11.96-46.87-23.63c-17.49-15.93-28.74-38.05-29.58-62.83l-4.51-132.24c-0.24-7.07,4.07-13.49,10.73-15.91
				c17.48-6.38,53.27-17.49,90.47-17.49c18.29,0,36.25,2.68,51.86,6.19c0.5,0.11,1.01,0.22,1.5,0.34c0.5,0.12,1,0.23,1.49,0.35
				c4.62,1.08,9,2.22,13.1,3.37c2.93,0.83,5.72,1.65,8.34,2.47c0.09,0.03,0.18,0.06,0.26,0.08c0.78,0.24,1.53,0.49,2.27,0.72
				c0.37,0.11,0.74,0.23,1.1,0.36c0.67,0.21,1.34,0.43,1.98,0.64c3.2,1.06,6.07,2.07,8.57,2.98
				C347.3,140.71,351.62,147.12,351.38,154.2z"/>
			<path class="st7" d="M250.18,364.25c-22.44,0-43.72-8.12-59.92-22.88c-16.11-14.67-25.38-34.31-26.1-55.3l-4.51-132.24
				c-0.08-2.46,1.41-4.68,3.71-5.52c17.24-6.29,51.44-16.84,86.82-16.84s69.58,10.55,86.82,16.84c2.31,0.84,3.8,3.06,3.71,5.52
				l-4.51,132.24c-0.72,20.99-9.98,40.63-26.1,55.3C293.89,356.13,272.61,364.25,250.18,364.25z"/>
			<g>
				<path class="st9" d="M338.11,230.06c0-15.56-35.18-25.9-77.24-11.92c-45.61,15.15-58.89-15.34-99.18-4.35l10.65,40.96
					l150.93,4.61L338.11,230.06z"/>
				<path class="st1" d="M326.37,230.84c-8.44,1.2-16.83,3.61-24.99,6.1c-3.43,1.05-6.89,2.12-10.37,3.11
					c-0.49,0.15-0.99,0.29-1.49,0.43c-0.97,0.28-1.94,0.54-2.91,0.8c-3.32,0.89-6.65,1.68-10,2.31c-3.44,0.65-6.89,1.12-10.35,1.35
					c-3.75,0.25-7.52,0.2-11.3-0.25c-9.66-1.14-18.65-4.78-27.38-9.19c-1.9-0.97-3.8-1.97-5.69-2.99l-3.42-1.88
					c-2.95-1.63-5.89-3.27-8.83-4.86c-0.57-0.31-1.13-0.62-1.7-0.92c-3.1-1.66-6.29-3.27-9.56-4.73c-0.2-0.09-0.44-0.2-0.73-0.32
					c-0.21-0.1-0.41-0.19-0.62-0.28c-3.8-1.65-7.69-3.1-11.62-4.2c-7.84-2.21-15.85-3.06-23.72-1.54l0.77,22.6l1.7,49.69
					c0.71,20.99,9.98,40.63,26.1,55.31c16.2,14.75,37.48,22.87,59.92,22.87s43.71-8.12,59.92-22.87
					c16.12-14.67,25.38-34.31,26.1-55.31l0.89-26.15l1.02-29.86C334.2,229.97,330.28,230.28,326.37,230.84z"/>
				<g>
					<path class="st5" d="M219.18,237.31c0.02,1.26-1.17,1.15-2.07,1.17c-0.61,0.02-1.5,0.16-2.09-0.02
						c-0.22-0.06-0.34-0.24-0.56-0.28c-0.74-0.11-1.08,0.57-1.58,0.94c-0.85,0.65-1.4-0.3-2.27-0.44c-0.41-0.07-0.85,0.03-1.22,0.24
						c-0.54,0.34-0.67,0.84-0.94,1.41c-0.21,0.44-0.48,0.94-0.89,1.24c-0.7,0.51-1.72,0.39-2.47,0.8c-0.94,0.51-1.59,1.82-2.27,2.67
						c-0.88,1.1-1.26,2.56-2.36,3.51c-0.54,0.47-0.39,0.68-0.76,1.26c-0.4,0.62-1.29,1.26-1.94,1.61c-0.94,0.52-2.11,1.03-2.84,1.86
						c-0.61,0.68-0.39,1.98-0.13,2.8c0.27,0.87,0.98,1.5,0.71,2.49c-0.21,0.88-2.07,1.7-2.64,0.85c-0.53-0.76-0.89-1.87-1.17-2.77
						c-0.16-0.51-0.25-0.98-0.63-1.35c-0.35-0.34-0.54-0.34-0.99-0.25c-0.23,0.05-0.49,0.22-0.74,0.16c-0.3-0.07-0.54-0.5-0.85-0.61
						c-0.69-0.24-1.14,0.27-1.56,0.75c-0.75,0.85-1.32,0.78-2.28,0.37c-0.86-0.38-1.6-1.08-2.54-1.11
						c-0.44-0.01-1.14,0.06-1.49,0.32c-0.34,0.25-0.22,0.29-0.31,0.67c-0.11,0.45-0.13,0.98-0.31,1.39c-0.54,1.17-1.99,2-2.96,2.73
						c-1.74,1.33-0.3,3.39,0.03,5.02c0.18,0.89,0.04,1.94,0.99,2.45c0.81,0.43,1.73,0.25,2.36-0.32c0.5-0.45,0.88-0.85,1.2-1.46
						c0.19-0.36,0.35-0.69,0.68-0.96c0.27-0.23,0.42-0.26,0.78-0.27c0.66-0.02,1.74-0.17,2.36,0.03c1.08,0.37,0.39,1.58-0.1,2.21
						c-0.39,0.5-0.85,0.93-0.57,1.6c0.29,0.67,1.07,1.04,1.4,1.68c0.28,0.53,0.42,0.69,1.12,0.42c0.68-0.28,1.29-0.58,2-0.12
						c0.43,0.27,0.66,0.72,0.65,1.23c-0.01,0.75-0.61,1.62-0.84,2.32c-0.12,0.41-0.07,0.65-0.01,1.09c0.1,0.8,0.9,1.3,1.45,1.81
						c0.77,0.71,1.12,1.63,1.83,2.41c0.34,0.37,0.72,0.87,0.57,1.45c-0.25,0.92-1.82,0.41-2.45,0.16c-1.08-0.43-2.37-0.62-3.01-1.64
						c-0.32-0.52-0.68-1.01-1.01-1.53c-0.23-0.36-0.39-0.82-0.71-1.12c-0.16-0.15-0.31-0.16-0.46-0.26
						c-0.34-0.26-0.6-0.62-0.89-0.94c-0.8-0.89-1.56-1.55-2.21-2.55c-0.44-0.7-1.12-0.86-1.9-1.08c-0.97-0.27-1.7,0.47-2.68,0.47
						c-0.62,0-0.96-0.44-1.5-0.71c-0.47-0.24-0.99-0.35-1.45-0.6c-0.82-0.42-1.4-1.18-2.16-1.67c-0.69-0.45-1.1-0.1-1.84,0.02
						c-0.86,0.14-1.44-0.48-1.95-1.09c-1.1-1.3-0.89-2.46-1.05-4.01c-0.14-1.28-0.37-2.19-1.4-2.96c-0.71-0.53-1.53-0.92-1.95-1.72
						c-0.21-0.39-0.27-0.84-0.49-1.22c0.54-10-0.02-13.95-1.37-21.48l-0.77-22.6c7.87-1.53,15.88-0.67,23.72,1.54
						c3.93,1.1,7.82,2.55,11.62,4.2c0.21,0.09,0.42,0.18,0.62,0.28c0.29,0.12,0.53,0.23,0.73,0.32c-0.11,0.12-0.19,0.25-0.21,0.39
						c-0.1,0.68,1.01,1.45,1.43,1.81c0.57,0.49,1.12,0.98,1.84,1.22c0.39,0.12,0.85,0.16,1.13,0.5c0.34,0.45,0.1,1.02,0.64,1.37
						c0.75,0.5,2,0.14,2.82,0.08c0.81,1.77-1.63,1.67-1.83,2.88c-0.11,0.61,0.12,1.35,0.51,1.8c0.37,0.42,1.05,0.82,1.63,0.66
						c0.76-0.21,0.94-1.26,1.18-1.9c0.47-1.22,0.11-2.52,1.63-3.01c0.16-0.05,0.31-0.1,0.47-0.16c2.94,1.59,5.88,3.24,8.83,4.86
						c-0.24,0.1-0.44,0.3-0.67,0.67c-0.52,0.8-0.45,1.39-0.59,2.23c-0.16,1.08-1.33,1.32,0,2.23
						C217.89,236.24,219.16,236.4,219.18,237.31z"/>
					<path class="st5" d="M198.78,264.62c-0.09-0.11-0.18-0.2-0.27-0.28c-0.11-0.08-0.36-0.05-0.49-0.09
						c-1.01-0.28-1.54-1.24-2.41-1.73c-0.77-0.43-1.83-0.71-2.72-0.64c-0.62,0.05-0.55,0.55-1.07,0.77
						c-0.59,0.24-1.3-0.25-1.88-0.12c-0.52,0.11-0.95,0.75-0.84,1.27c0.22,1.06,1.82,1.68,2.72,1.88c0.29,0.07,0.58,0.12,0.88,0.14
						c0.23,0.01,0.47,0.04,0.7,0.07c0.21,0.1,0.2,0.29,0.29,0.5c0.15,0.37,0.4,0.65,0.63,0.96c0.14,0.18,0.21,0.42,0.35,0.6
						c0.54,0.64,1.9,0.87,2.7,0.67c0.73-0.18,0.37-0.65,0.72-1.13c0.2-0.28,0.53-0.24,0.81-0.43
						C199.64,266.59,199.31,265.3,198.78,264.62z"/>
					<path class="st5" d="M199,268.87c0.33,0.3,0.61,0.53,1.05,0.62c0.3,0.06,0.61,0.09,0.92,0.05c0.28-0.04,0.54-0.16,0.83-0.16
						c1.02,0.01,2.02,1.37,3.07,0.8c0.41-0.22,0.43-0.46,0.45-0.86c0.03-0.5,0.29-0.58,0.59-0.91c0.34-0.38,0.22-0.78-0.08-1.15
						c-0.3-0.38-0.55-0.45-1.03-0.45c-0.31,0-0.47-0.01-0.71-0.24c-0.16-0.14-0.26-0.32-0.45-0.43c-0.26-0.14-0.57-0.13-0.99-0.18
						c-0.43,0-0.79,0-1.19,0.19c-0.48,0.23-0.35,0.5-0.61,0.86c-0.26,0.35-0.8,0.31-1.17,0.41c-0.34,0.09-1.13,0.46-1.09,0.92
						C198.62,268.57,198.86,268.74,199,268.87z"/>
					<path class="st5" d="M237.7,294.37c-0.47,0.01-0.86,0.32-1.34,0.27c-0.9-0.09-1.82-1.05-1.97-1.96
						c-0.13-0.73,0.2-0.97-0.5-1.23c-0.91-0.34-2.6,0.07-3.57,0c-1.17-0.09-1.75-0.63-2.69-1.26c-0.9-0.6-1.6-1.04-2.37-1.79
						c-0.48-0.46-1.32-0.76-1.66-1.34c-0.39-0.66-0.36-1.63-0.77-2.35c-0.57-1-1.28-1.52-2.34-1.88c-0.76-0.26-1.56-0.35-2.35-0.45
						c-1.34-0.17-1.16-0.32-2.38-1.06c-0.81-0.49-1.44-0.51-1.8-1.3c-0.23-0.51-0.49-1.08-0.52-1.63c-0.06-0.88,0.37-2.04-0.92-2.17
						c-0.48-0.05-0.73,0.12-1.21,0c-0.45-0.11-0.85-0.32-1.31-0.39c-0.23,0.28-0.33,0.64-0.41,0.99c-0.26,0.05-0.45-0.48-0.71-0.4
						c-0.7,0.23-1.41,0.65-2.18,0.4c-0.78-0.25-1.42-1.11-2.22-1.5c-1.08-0.53-2.22-0.54-3.39-0.23c-0.97,0.26-1.18,0.71-1.78,1.35
						c-0.81,0.87-1.98,0.44-2.98,0.7c-0.65,0.17-0.62,0.57-0.94,1.09c-0.25,0.4-0.85,0.79-0.83,1.33c0.04,1.28,2.4,1.34,3.21,1.84
						c-0.02,0.49,0.04,1.12-0.29,1.53c-0.64,0.78-2.25,0.66-3.14,1.03c-1.2,0.49-0.56,1.69-1.16,2.71c-0.3,0.5-0.55,0.82-1.1,1.06
						c-0.73,0.33-1.4,0.24-1.76,1.07c-0.3,0.69,0.01,1.1,0.29,1.72c0.29,0.63,0.32,1.18,0.43,1.84c0.12,0.66,0.81,1.13,0.87,1.77
						c0.07,0.71-0.54,0.82-0.97,1.34c-1.29,1.56,1.04,2.94,1.75,4.08c0.85,1.37,0.63,3.11,1.62,4.37c0.6,0.76,1.58,0.96,2.27,1.59
						c0.84,0.76,1.09,2.03,1.98,2.75c0.84,0.68,1.62,0.37,2.55,0.57c0.52,0.11,0.72,0.4,1.06,0.87c0.44,0.61,0.89,1.36,0.82,2.13
						c-0.06,0.65-0.47,1.18-0.59,1.82c-0.14,0.8-0.17,1.85,0.15,2.61c0.4,0.96,1.35,1.62,1.64,2.6c0.3,1.02,0.26,2.51,0.3,3.58
						c0.05,1.38-0.32,2.75-0.28,4.15c0.03,0.87,0.04,1.8,0.12,2.66c0.15,1.47,1.54,2.37,1.53,3.88c-0.01,1.87-0.54,3.67-0.59,5.54
						c-0.02,0.63-0.02,1.37,0.25,1.96c0.28,0.62,0.88,0.77,1.26,1.26c0.44,0.56,0.63,1.1,1.2,1.65c1.02,0.97,1.81,1.96,2.75,3.03
						c1.18,1.33,0.83,3.08,1.72,4.53c0.95,1.55,2.71,1.09,4.27,1.47c1.05,0.26,3.84,1.99,3.66-0.29c-0.05-0.7-0.46-0.84-1.07-1.08
						c-1.12-0.44-1.78-0.71-2.54-1.64c-0.69-0.84-1.11-1.35-0.77-2.47c0.24-0.79,0.52-1.04-0.04-1.71
						c-1.67-1.97-2.26-4.29-0.23-6.38c0.64-0.66,1.3-1.2,1.54-2.14c0.2-0.77-0.18-2.05,0.4-2.7c0.34-0.39,0.72-0.25,1.22-0.28
						c0.84-0.04,1.53-0.27,2.31-0.56c1.33-0.5,1.64-2.23,1.42-3.59c-0.22-1.41-0.74-2.31,0.18-3.61c0.58-0.82,1.35-1.47,1.8-2.43
						c1.02-2.22-0.87-5.11,2.45-5.98c2.47-0.65,5.72,0.39,6.89-2.76c0.45-1.2-0.16-2.44,0.61-3.56c0.61-0.88,2.08-1.39,2.08-2.59
						c0.01-0.98-0.93-1.48-1.4-2.21c-0.7-1.1-0.29-2.18,0.47-3.13c0.72-0.89,1.33-1.62,1.75-2.7c0.57-1.47,1.89-3.3,1.75-4.97
						C239.16,294.98,238.54,294.35,237.7,294.37z"/>
					<path class="st5" d="M276.61,243.58c0.04,0.96-0.05,1.9-0.76,2.43c-1.08,0.81-2.93,0.46-4.1,1.12
						c-1.23,0.69-0.74,2.57-2.64,2.41c-1.67-0.14-3.23-2.18-3.1-3.79c0.03-0.29,0.12-0.56,0.23-0.82
						C269.72,244.7,273.17,244.23,276.61,243.58z"/>
					<path class="st5" d="M290.24,241.1c0.73,0.81,1.51,3.42-0.07,3.87c-0.33,0.1-0.94-0.3-1.35-0.22c-0.35,0.05-0.57,0.2-0.87,0.44
						c-0.32,0.25-0.67,1.08-0.96,1.21c-0.28,0.12-1.3-0.3-1.45-0.5c-0.62-0.87,0.3-1.82,1.1-1.91c0.63-0.08,1.88-0.07,2.28-0.7
						c0.6-0.95-0.99-1.45-1.62-1.71c-0.25-0.1-0.48-0.2-0.71-0.3c0.97-0.25,1.94-0.52,2.91-0.8
						C289.78,240.66,290.02,240.86,290.24,241.1z"/>
					<path class="st5" d="M338.11,230.06l-1.02,29.86c-2.15,0.24-4.79,0.21-5.95-0.99c-0.99-1.02-1.64-2.44-3.29-2.52
						c-0.71-0.04-1.02,0.62-1.63,0.7c-0.3,0.04-0.74-0.21-1.02-0.34c-1.35-0.6-2.36-3.18-3.96-3.05c-0.69,0.06-1.5,0.62-1.09,1.35
						c0.21,0.37,0.67,0.65,0.99,0.9c1.23,0.99,2.55,1.73,3.48,3.05c0.34,0.5,0.67,1.4,1.25,1.58c0.44,0.14,1.28,0.1,1.67-0.14
						c0.49-0.3,0.52-0.98,1.07-1.17c0.4-0.14,0.97,0,1.26,0.28c0.46,0.45,0.71,0.99,1.32,1.35c0.53,0.3,1.04,0.58,1.53,0.99
						c0.58,0.48,1.79,1.54,1.76,2.33c-0.03,0.77-1.03,1.46-1.54,1.91c-0.63,0.57-1.17,1.24-1.69,1.92
						c-0.67,0.87-0.85,1.91-2.05,2.24c-0.9,0.25-1.83,0.19-2.71,0.58c-0.48,0.21-1.18,0.34-1.58,0.67
						c-0.55,0.47-0.39,1.32-0.75,1.91c-0.76,1.22-2.82,1.74-4.15,1.66c-1.49-0.11-1.97-1.44-2.73-2.52
						c-0.97-1.37-1.9-3.14-2.35-4.76c-0.24-0.89-0.45-1.67-0.35-2.59c0.1-1.03-0.3-1.78-0.61-2.76c-0.6-1.8-2.7-2.68-3.97-4.01
						c-0.85-0.89-1.58-1.91-1.86-3.1c-0.14-0.58-0.12-1.17-0.37-1.72c-0.28-0.62-0.62-1.2-0.72-1.89c-0.14-0.85,0.06-1.17,0.53-1.8
						c0.51-0.67,1.36-1.66,1.24-2.56c-0.1-0.67-0.56-1.12-1.16-1.2c-0.76-0.1-1.88,0.48-2.48,0.91c-0.27,0.19-0.55,0.52-0.89,0.6
						c-0.81,0.19-1.25-0.38-1.74-0.81c-0.17-0.16-0.52-0.23-0.65-0.43c-0.21-0.32-0.02-0.68-0.11-1c-0.31-1.2-1.14-0.38-1.68,0.01
						c-0.9-0.65-1.02-1.02-0.83-2c0.27-1.47-1.66-2.4-2.56-1.16c-0.85,1.16-0.38,1.91-0.3,3.29c0.06,0.76,0.34,2.19-0.83,1.86
						c-1.73-0.48-2.32-3.07-2.55-4.57c-0.22-1.35-1.32-1.81-2.03-2.91c3.48-0.99,6.94-2.06,10.37-3.11
						c8.16-2.49,16.55-4.9,24.99-6.1C330.28,230.28,334.2,229.97,338.11,230.06z"/>
					<path class="st5" d="M325.5,274.92c-0.7,0.59-1.29,1.33-1.92,1.98c-1.26,1.31-3.05,1.04-4.33-0.21
						c-0.45-0.44-0.57-1.22-1.12-1.58c-0.53-0.35-1.21-0.24-1.75-0.47c-1.12-0.5-1.66-2.18-2.29-3.12
						c-0.77-1.16-1.25-2.21-1.68-3.53c-0.38-1.17-0.42-2.45-0.84-3.6c-0.46-1.26-1.42-1.59-2.52-2.13c-1.1-0.54-1.66-1.78-2.05-2.92
						c-0.27-0.82-0.36-1.51-0.41-2.35c-0.06-0.96-0.37-1.48-0.99-2.23c-0.49-0.6-1.23-1.55-2.09-1.56c-0.44,0-0.6,0.2-1.05,0.36
						c-1.79,0.62-3.58-0.55-4.95-1.57c-1.14-0.85-2.12-1.35-3.57-0.64c-1.03,0.51-0.23,2.25-0.94,2.41c-0.15,1.24-3.3-0.9-3.66-1.25
						c-1.23-1.17-1.69-2.05-3.57-1.92c-0.85,0.06-1.96-0.03-2.11-1.2c-0.06-0.46,0.51-1.84,0.6-2.32c-0.91-0.88-3.25-0.47-4.45-0.46
						c-1.07,0-2.55-0.18-3.32,0.68c-0.33,0.37-0.54,1.46-0.98,1.68c-0.47,0.23-0.96-0.25-1.45-0.3c-1.28-0.12-1.13,0.85-1.85,1.64
						c-0.67,0.74-1.79,0.92-2.75,0.82c-1.41-0.15-2.07-0.45-3.5,0.26c-0.68,0.33-1.35,0.65-1.77,1.29
						c-0.44,0.68-0.55,1.52-1.06,2.16c-0.48,0.61-1.18,0.71-1.72,1.18c-0.47,0.41-0.88,1.38-0.94,1.99
						c-0.04,0.4,0.12,0.75,0.07,1.14c-0.11,0.88-0.91,1.21-1.46,1.77c-0.87,0.89-1.4,2-2.03,3.06c-0.83,1.4,0.34,2.33,0.31,3.76
						c-0.04,1.82-2.04,2.34-2.39,3.9c-0.23,1.04,0.58,1.85,1.14,2.61c0.7,0.95,1.76,1.9,2.21,2.99c0.65,1.57,0.66,3.56,1.86,4.87
						c0.9,0.98,2.61,1.86,3.96,1.65c0.39-0.06,0.61-0.18,1.02-0.12c0.63,0.09,1.17,0.59,1.83,0.63c0.71,0.04,1.35-0.55,2.03-0.48
						c0.85,0.09,1.55,1.2,2.51,0.7c0.8-0.41,1.28-1.76,1.85-2.41c0.52-0.59,1.87-1.01,2.66-0.81c0.78,0.19,1.36,1.44,1.94,2.04
						c0.63,0.65,1.1,1.1,2,1.15c0.63,0.03,1.12-0.45,1.64-0.45c0.65,0,0.81,0.53,0.93,0.99c0.18,0.68,0.52,1.41,0.64,2.11
						c0.12,0.7,0.01,1.34-0.24,1.97c-0.55,1.41-1.26,2.26,0.02,3.48c1.48,1.42,2.91,2.45,3.48,4.57c0.4,1.51,0.14,3.28,0.34,4.82
						c0.13,1.02,0.22,1.91,0.06,2.92c-0.16,1.03-1,1.82-1.32,2.79c-0.4,1.2-0.15,2.22,0.68,3.18c1.01,1.17,1.79,2.01,2.35,3.47
						c0.54,1.4,0.56,1.92,0.14,3.3c-0.29,0.96-0.55,2-0.05,2.94c0.6,1.13,1.89,1.88,2.4,3.04c0.55,1.26,0.26,2.84,0.94,4.09
						c0.65,1.2,1.76,2.4,3.17,2.45c1.46,0.05,1.44-0.96,2.26-1.97c0.59-0.73,1.9-1.08,2.8-1.07c0.63,0.01,1.33,0.2,1.94-0.07
						c0.84-0.38,0.98-1.33,1.35-2.07c0.46-0.94,0.85-2.46,1.64-3.14c0.8-0.68,1.9-0.79,2.72-1.55c0.54-0.5,1.15-1.1,1.49-1.75
						c1.4-2.72-3.13-6.02,0.31-8.26c1.61-1.05,3.18-1.49,3.98-3.41c0.48-1.16,0.75-1.96,0.5-3.21c-0.27-1.33-0.61-2.5-1.16-3.74
						c-0.32-0.72-0.99-1.7-0.87-2.55c0.11-0.83,1.36-1.99,1.9-2.49c0.56-0.52,1.25-0.89,1.78-1.44c0.7-0.71,0.54-1.02,0.55-1.88
						c0.03-1.56,1.83-2.83,2.91-3.72c1.11-0.92,0.95-1.98,1.59-3.13c0.95-1.69,2.72-1.97,4.19-2.93c1.67-1.09,2.07-2.63,2.07-4.54
						c0-0.55,0.31-2.12-0.08-2.53C326.58,274.2,325.83,274.65,325.5,274.92z"/>
					<path class="st5" d="M324.55,302.06c-0.57,0.35-0.37,1.26-0.79,1.83c-0.41,0.58-0.82,0.64-1.51,0.68
						c-0.64,0.03-1.93-0.23-2.46,0.28c-0.4,0.38-0.15,1.05-0.13,1.58c0.05,1.32-1.23,1.97-2.29,2.59c-1.58,0.92-1.26,2.13-0.57,3.57
						c0.5,1.05,1.46,2.18,1.31,3.36c-0.08,0.59-0.29,1.15-0.57,1.68c-0.14,0.27-0.62,0.77-0.64,1.06c-0.03,0.39,0.36,0.96,0.73,1.07
						c0.45,0.14,1.4-0.25,1.76-0.35c0.98-0.26,1.96-0.32,2.49-1.25c0.54-0.95,0.84-2.16,1.3-3.16c0.43-0.95,0.64-2.04,0.81-3.07
						c0.2-1.22,0.61-2.13,1.08-3.28c0.61-1.5,1.02-3.14,1.35-4.72c0-0.42,0.08-0.86-0.01-1.2
						C326.2,301.98,325.24,301.64,324.55,302.06z"/>
				</g>
			</g>
			<path class="st8" d="M351.38,154.2l-4.51,132.24c-0.02,0.68-0.06,1.36-0.1,2.05c-1.73,28.29-19.49,58.18-48.57,74.32
				c-0.49,0.27-0.97,0.54-1.47,0.78c-10.14,5.41-21.61,9.15-34.23,10.59c-0.39,0.06-0.79,0.09-1.19,0.13
				c-0.03,0.01-0.05,0.01-0.07,0.01c-9.73,0.99-20.11,0.63-31.08-1.37c-0.07-0.02-0.15-0.03-0.22-0.05
				c41.46-7.46,66.12-46.07,67.2-77.62l5.55-162.56c0.07-1.97-0.17-3.9-0.65-5.74c0.5,0.11,1.01,0.22,1.5,0.34
				c0.5,0.12,1,0.23,1.49,0.35c4.62,1.08,9,2.22,13.1,3.37c2.93,0.82,5.72,1.65,8.34,2.47c0.09,0.03,0.18,0.06,0.26,0.08
				c0.78,0.24,1.53,0.49,2.27,0.72c0.37,0.11,0.74,0.23,1.1,0.36c0.67,0.21,1.34,0.43,1.98,0.64c3.2,1.06,6.07,2.07,8.57,2.98
				C347.3,140.71,351.62,147.12,351.38,154.2z"/>
			<path class="st10" d="M291.75,344.47c0,8.88-18.61,17.19-41.58,17.19s-41.58-8.31-41.58-17.19s18.34,1.26,41.3,1.26
				S291.75,335.59,291.75,344.47z"/>
			<g class="st11">
				<ellipse class="st2" cx="199.33" cy="207.97" rx="32.46" ry="57.31"/>
				<ellipse class="st2" cx="232.64" cy="278.89" rx="14.06" ry="24.84"/>
			</g>
		</g>
		<g>
			<path class="st5" d="M378.92,325.77c-10.13,1.86-20.59,2.04-30.85,2.69c-11.15,0.7-22.28,1.38-33.43,2.03
				c-22.28,1.29-44.59,2.47-66.89,3.53c-22.29,1.07-44.61,2.01-66.92,2.84c-11.16,0.42-22.31,0.8-33.47,1.16
				c-6.08,0.2-20.55-0.92-22.26,7.53c-1.83,9.07,16.01,8.09,20.81,8.18c11.19,0.19,22.38,0.37,33.57,0.57l2.38,0.04l7.43,0.13
				c7.03,5.39,14.86,9.87,23.28,13.24c-2.06-0.02-4.1-0.05-6.16-0.07c-13.96-0.14-27.91-0.28-41.86-0.51
				c-7.39-0.13-14.94,0.11-22.4-0.21c-2.75-0.11-5.48-0.31-8.19-0.63c-8.83-1.03-18.15-5.33-21.16-14.41
				c-2.65-8.04,1.18-16.2,7.72-21.06c7.43-5.52,17.03-5.57,25.89-5.86c43.08-1.37,86.16-3.18,129.2-5.41
				c21.68-1.13,43.35-2.36,65.01-3.71c10.32-0.64,20.75-0.95,31.03-2.14c8.11-0.93,17.02-3.21,22.05-10.2
				c4.56-6.33,2.71-13.55-3.26-18.19c-7.71-6-18.62-6.17-27.91-6.97c-5.12-0.45-10.24-0.88-15.37-1.3l0.27-7.81l0.18-5.23
				c4.97,0.41,9.95,0.83,14.92,1.26c17.44,1.5,40.87,4.22,46.19,24.62C413.7,308.92,395.54,322.73,378.92,325.77z"/>
			<path class="st6" d="M387.93,314.55c-21.84,8.59-247.43,13.84-255.15,16.06c-7.71,2.23-14.95,6.13-15.98,15.59
				c-1.04,9.47,5.72,18.71,25.36,20.72c-2.75-0.11-5.48-0.31-8.19-0.63c-8.83-1.03-18.15-5.33-21.16-14.41
				c-2.65-8.04,1.18-16.2,7.72-21.06c7.43-5.52,17.03-5.57,25.89-5.86c43.08-1.37,86.16-3.18,129.2-5.41
				c21.68-1.13,43.35-2.36,65.01-3.71c10.32-0.64,20.75-0.95,31.03-2.14c8.11-0.93,17.02-3.21,22.05-10.2
				c4.56-6.33,2.71-13.55-3.26-18.19c-7.71-6-18.62-6.17-27.91-6.97c-5.12-0.45-10.24-0.88-15.37-1.3l0.27-7.81
				c26.27,2.69,42.92,5.66,50.02,14.43C404.26,292.05,405.21,307.75,387.93,314.55z"/>
			<path class="st6" d="M212.58,367.71c-2.06-0.02-4.1-0.05-6.16-0.07c-2.61-0.82-5.2-1.74-7.74-2.78
				c-6.15-2.53-12.03-5.91-16.82-10.52l7.43,0.13C196.32,359.86,204.15,364.34,212.58,367.71z"/>
		</g>
		<g>
			<g>
				<path class="st5" d="M152.75,264.72c-0.48-0.07-0.96-0.13-1.44-0.21c-3.73-0.53-7.43-1.21-11.09-2.11
					c-8.24-2.01-17.15-4.8-23.8-10.29c-10.11-8.35-11.6-22.12-11.84-34.58c-0.03-1.46-0.04-2.91-0.04-4.32
					c0-0.21,0.01-0.41,0.03-0.61c0.58-7.82,13.03-7.61,13.05,0.61v0.85c0.01,7.02-0.01,14.49,2.48,21.13
					c2.29,6.12,7.11,9.08,13,11.34c6.19,2.37,12.65,3.93,19.19,4.95L152.75,264.72z"/>
				<path class="st6" d="M152.75,264.72c-0.48-0.07-0.96-0.13-1.44-0.21c-0.46-2.77-0.92-5.51-1.36-8.29
					c-4.99-0.57-10-1.15-14.85-2.45c-4.85-1.31-9.57-3.39-13.36-6.67c-3.95-3.42-6.77-8.04-8.4-13c-1.63-4.96-2.19-10.52-1.87-15.73
					c-2.3-0.28-4.6-0.56-6.89-0.84c-0.03-1.46-0.04-2.91-0.04-4.32c0-0.21,0.01-0.41,0.03-0.61c0.21-0.13,0.43-0.25,0.66-0.35
					c1.97-0.84,4.22-0.6,6.32-0.14c2.08,0.46,4.11,1.1,6.07,1.94c0.01,7.02-0.01,14.49,2.48,21.13c2.29,6.12,7.11,9.08,13,11.34
					c6.19,2.37,12.65,3.93,19.19,4.95L152.75,264.72z"/>
			</g>
			<g>
				<g>
					<g>
						<rect x="93.02" y="198.7" class="st3" width="35.31" height="16.84"/>
						<rect x="96.02" y="200.71" class="st12" width="2.91" height="12.83"/>
						<rect x="102.62" y="200.71" class="st12" width="2.91" height="12.83"/>
						<rect x="109.22" y="200.71" class="st12" width="2.91" height="12.83"/>
						<rect x="115.82" y="200.71" class="st12" width="2.91" height="12.83"/>
						<rect x="122.42" y="200.71" class="st12" width="2.91" height="12.83"/>
					</g>
					<path class="st3" d="M124.35,188.92v9.78H97.01v-9.78c0-3.95,3.21-7.16,7.16-7.16h13.02
						C121.14,181.76,124.35,184.96,124.35,188.92z"/>
					<path class="st12" d="M124.35,192.7v6H97.01v-2.95C102.54,195.11,116.76,193.54,124.35,192.7z"/>
				</g>
				<polygon class="st4" points="114.36,110.56 114.36,181.76 106.99,181.76 106.99,120.75 110.68,115.65 				"/>
				<polygon class="st8" points="110.68,115.65 110.68,181.76 106.99,181.76 106.99,120.75 				"/>
			</g>
		</g>
	</g>
	<g>
		<g>
			<path class="st5" d="M388.66,237.94c-9.98-4.59-16.04-13.52-18.38-22.49c-2.78-10.53-0.43-21.16,6.64-24.93
				c9.61-5.14,23.05,2.2,23.07,13.32c6.68-8.89,21.85-6.73,26.47,3.15c0.73,1.56,1.1,3.22,1.14,4.97
				C427.93,225.27,409.31,242.34,388.66,237.94z"/>
			<path class="st6" d="M388.66,237.94c-9.98-4.59-16.04-13.52-18.38-22.49c4.26,6,11.04,10.19,18.29,11.77
				c8.6,1.9,17.75,0.35,25.78-3.3c3.56-1.63,7.01-3.72,9.71-6.57c1.29-1.36,2.39-2.92,3.22-4.6c0.12-0.25,0.23-0.51,0.33-0.81
				C427.93,225.27,409.31,242.34,388.66,237.94z"/>
			
				<ellipse transform="matrix(0.5046 -0.8633 0.8633 0.5046 14.4865 427.9119)" class="st10" cx="380.14" cy="201.33" rx="10.51" ry="6.51"/>
		</g>
		<g>
			<path class="st5" d="M47.44,297.73c-4.69-1.67-7.78-5.46-9.19-9.41c-1.67-4.64-1.04-9.53,2-11.52
				c4.13-2.71,10.49,0.07,10.94,5.08c2.66-4.28,9.59-3.91,12.07,0.36c0.39,0.67,0.62,1.41,0.72,2.2
				C64.65,290.44,56.93,298.89,47.44,297.73z"/>
			<path class="st6" d="M47.44,297.73c-4.69-1.67-7.78-5.46-9.19-9.41c2.16,2.54,5.39,4.16,8.73,4.58c3.96,0.51,8.02-0.55,11.5-2.52
				c1.54-0.88,3.01-1.96,4.12-3.35c0.53-0.67,0.96-1.41,1.27-2.21c0.05-0.12,0.08-0.24,0.12-0.38
				C64.65,290.44,56.93,298.89,47.44,297.73z"/>
			<path class="st10" d="M44.79,282.82c-1.12,2.38-3.22,3.74-4.7,3.05c-1.47-0.69-1.76-3.19-0.64-5.56c1.12-2.38,3.22-3.74,4.7-3.05
				C45.63,277.95,45.91,280.44,44.79,282.82z"/>
		</g>
		<g>
			<path class="st5" d="M74.13,123.17c-11.5,2.86-22.62-0.58-30.63-6.56c-9.43-7-14.62-17.52-11.21-25.47
				c4.63-10.81,20.89-13.68,28.4-4.33C60.33,74.82,74.55,66.42,85.1,71.63c1.67,0.82,3.09,1.97,4.31,3.41
				C98.66,86.04,94.49,112.96,74.13,123.17z"/>
			<path class="st6" d="M74.13,123.17c-11.5,2.86-22.62-0.58-30.63-6.56c7.63,2.18,16.16,1.14,23.33-2.42
				c8.52-4.2,15.18-11.66,19.48-20.14c1.9-3.77,3.4-7.85,3.75-12.08c0.16-2.02,0.04-4.07-0.39-6.04c-0.06-0.29-0.15-0.58-0.27-0.9
				C98.66,86.04,94.49,112.96,74.13,123.17z"/>
			<path class="st10" d="M48.26,97.23c0.88,5.96-1.41,11.23-5.1,11.78c-3.69,0.54-7.4-3.85-8.28-9.81
				c-0.88-5.96,1.41-11.23,5.1-11.78C43.68,86.88,47.39,91.27,48.26,97.23z"/>
		</g>
		<g>
			<path class="st5" d="M399.65,86.58c-5.39-2.32-8.73-7.02-10.09-11.77c-1.61-5.59-0.5-11.29,3.23-13.39
				c5.07-2.87,12.33,0.88,12.48,6.82c3.46-4.83,11.58-3.87,14.17,1.35c0.41,0.82,0.63,1.71,0.67,2.64
				C420.46,79.32,410.73,88.67,399.65,86.58z"/>
			<path class="st6" d="M399.65,86.58c-5.39-2.32-8.73-7.02-10.09-11.77c2.35,3.15,6.02,5.3,9.91,6.05
				c4.62,0.91,9.48-0.04,13.72-2.08c1.88-0.91,3.69-2.07,5.1-3.63c0.67-0.74,1.24-1.59,1.66-2.5c0.06-0.14,0.12-0.27,0.17-0.44
				C420.46,79.32,410.73,88.67,399.65,86.58z"/>
			<path class="st10" d="M397.26,68.6c-1.44,2.61-3.93,4-5.54,3.11s-1.76-3.74-0.31-6.35c1.44-2.61,3.93-4,5.54-3.11
				C398.56,63.15,398.7,65.99,397.26,68.6z"/>
		</g>
	</g>
	<g>
		<g>
			<path class="st4" d="M432.98,320.74l-53.18,60.1c-5.72,6.46-5.12,16.34,1.35,22.06c6.46,5.72,16.34,5.12,22.06-1.35l53.18-60.1
				L432.98,320.74z"/>
			<g>
				<path class="st1" d="M423.71,364.79c-3.18-2.45-5.64-5.69-8.28-8.72c-1.25-1.44-2.57-2.84-4.02-4.09l-28.21,31.88
					c-4.05,4.57-3.62,11.59,0.96,15.63c4.57,4.05,11.59,3.62,15.63-0.96l27.82-31.44C426.22,366.5,424.9,365.71,423.71,364.79z"/>
			</g>
			<path class="st8" d="M448.09,334.12l-53.18,60.1c-4.43,5-11.33,6.48-17.23,4.25c0.86,1.63,2,3.15,3.47,4.44
				c6.46,5.72,16.34,5.12,22.06-1.35l53.18-60.1L448.09,334.12z"/>
			
				<rect x="436.14" y="312" transform="matrix(0.6627 -0.7489 0.7489 0.6627 -96.4887 445.172)" class="st3" width="19.57" height="35.39"/>
			<polygon class="st12" points="456.48,344.46 453.05,348.34 441.68,339 426.19,325.3 428.55,322.63 			"/>
			<path class="st3" d="M454.26,346.39l-25.92-22.94c-1.16-1.03-2.94-0.92-3.97,0.24s-0.92,2.94,0.24,3.97l25.92,22.94
				c1.16,1.03,2.94,0.92,3.97-0.24C455.53,349.19,455.42,347.42,454.26,346.39z"/>
		</g>
		<g>
			<path class="st4" d="M36.82,173.45l21.44,50.91c2.31,5.47,8.61,8.04,14.09,5.74c5.47-2.31,8.04-8.61,5.74-14.09L56.64,165.1
				L36.82,173.45z"/>
			<g>
				<path class="st1" d="M61.38,192.33c-2.47,1.24-5.21,1.8-7.88,2.54c-1.26,0.35-2.53,0.75-3.73,1.27l11.37,27.01
					c1.63,3.87,6.11,5.7,9.98,4.07c3.87-1.63,5.7-6.11,4.07-9.98L63.98,190.6C63.19,191.28,62.31,191.87,61.38,192.33z"/>
			</g>
			<path class="st8" d="M49.62,168.06l21.44,50.91c1.78,4.24,0.64,8.96-2.5,11.96c1.27-0.05,2.55-0.3,3.79-0.83
				c5.47-2.31,8.04-8.61,5.74-14.09L56.64,165.1L49.62,168.06z"/>
			
				<rect x="34.05" y="161.35" transform="matrix(0.9216 -0.3881 0.3881 0.9216 -61.6068 31.1133)" class="st3" width="24.36" height="13.47"/>
			<polygon class="st12" points="58.54,165.94 59.92,169.22 50.74,173.5 37.62,179.02 36.67,176.76 			"/>
			<path class="st3" d="M59.07,167.89l-21.96,9.25c-0.98,0.41-1.45,1.55-1.03,2.53c0.41,0.98,1.55,1.45,2.53,1.03l21.96-9.25
				c0.98-0.41,1.45-1.55,1.03-2.53C61.19,167.94,60.06,167.48,59.07,167.89z"/>
		</g>
	</g>
</g>
</svg>
